<svg width="30" height="31" viewBox="0 0 30 31" fill="none" xmlns="http://www.w3.org/2000/svg">
<g clip-path="url(#clip0_602_541)">
<path d="M27.5 14.35V15.5C27.4985 18.1955 26.6256 20.8183 25.0117 22.9772C23.3977 25.1362 21.1291 26.7156 18.5442 27.4798C15.9593 28.2441 13.1966 28.1523 10.6681 27.2182C8.1396 26.284 5.98082 24.5576 4.5137 22.2963C3.04658 20.035 2.34974 17.36 2.5271 14.6703C2.70445 11.9807 3.74651 9.42036 5.49785 7.37129C7.24919 5.32223 9.61598 3.89418 12.2452 3.30014C14.8745 2.70609 17.6253 2.97787 20.0875 4.07495M27.5 5.49995L15 18.0125L11.25 14.2625" stroke="black" stroke-width="4" stroke-linecap="round" stroke-linejoin="round"/>
</g>
<defs>
<clipPath id="clip0_602_541">
<rect width="30" height="30" fill="white" transform="translate(0 0.5)"/>
</clipPath>
</defs>
</svg>
